<svg width="13" height="16" viewBox="0 0 13 16" fill="none" xmlns="http://www.w3.org/2000/svg">
<path d="M5.75833 2.18901V2.4063L5.97488 2.38833C6.14877 2.37389 6.32268 2.36667 6.5 2.36667C6.67732 2.36667 6.85123 2.37389 7.02512 2.38833L7.24167 2.4063V2.18901V1.08333C7.24167 0.595465 7.63636 0.2 8.125 0.2C8.61364 0.2 9.00833 0.595465 9.00833 1.08333V2.75573V2.88399L9.1249 2.9375C10.9265 3.76445 12.2686 5.41523 12.6754 7.4067L12.6757 7.40817C12.7712 7.85834 12.4616 8.35083 11.9849 8.45042C11.4959 8.5484 11.0149 8.23055 10.9429 7.76916L10.9431 7.76913L10.9414 7.76065C10.7287 6.70085 10.144 5.77638 9.33319 5.1284L9.00833 4.8688V5.28464V7.58333C9.00833 8.0721 8.61376 8.46667 8.125 8.46667C7.63624 8.46667 7.24167 8.0721 7.24167 7.58333V4.33672V4.12888L7.03398 4.13687C6.92863 4.14092 6.82809 4.13874 6.72045 4.13641C6.65099 4.1349 6.57857 4.13333 6.5 4.13333C6.42143 4.13333 6.34901 4.1349 6.27955 4.13641C6.17191 4.13874 6.07137 4.14092 5.96602 4.13687L5.75833 4.12888V4.33672V7.58333C5.75833 8.0721 5.36376 8.46667 4.875 8.46667C4.38624 8.46667 3.99167 8.0721 3.99167 7.58333V5.28464V4.8686L3.66675 5.12844C2.63061 5.95707 1.96667 7.23582 1.96667 8.66667C1.96667 11.1706 3.99605 13.2 6.5 13.2H11.9167C12.4054 13.2 12.8 13.5946 12.8 14.0833C12.8 14.5721 12.4054 14.9667 11.9167 14.9667H1.08333C0.595465 14.9667 0.2 14.572 0.2 14.0833C0.2 13.5947 0.595465 13.2 1.08333 13.2H1.65513H2.10224L1.80422 12.8667C0.806493 11.7508 0.2 10.2811 0.2 8.66667C0.2 6.12392 1.70579 3.9319 3.87501 2.93754L3.99167 2.88406V2.75573V1.08333C3.99167 0.595465 4.38636 0.2 4.875 0.2C5.36364 0.2 5.75833 0.595465 5.75833 1.08333V2.18901Z" fill="#797979" stroke="white" stroke-width="0.4"/>
</svg>
